<?xml version="1.0" standalone="no"?>
<!DOCTYPE svg PUBLIC "-//W3C//DTD SVG 20010904//EN"
 "http://www.w3.org/TR/2001/REC-SVG-20010904/DTD/svg10.dtd">
<svg version="1.0" xmlns="http://www.w3.org/2000/svg"
 width="512.000000pt" height="512.000000pt" viewBox="0 0 512.000000 512.000000"
 preserveAspectRatio="xMidYMid meet">
<metadata>
Created by potrace 1.14, written by Peter Selinger 2001-2017
</metadata>
<g transform="translate(0.000000,512.000000) scale(0.100000,-0.100000)"
fill="#000000" stroke="none">
<path d="M2365 5114 c-108 -9 -326 -46 -435 -73 -172 -44 -335 -105 -509 -192
-503 -249 -900 -646 -1150 -1150 -126 -252 -198 -480 -243 -764 -32 -201 -32
-549 0 -750 45 -284 117 -512 243 -764 249 -503 646 -900 1150 -1150 252 -126
480 -198 764 -243 201 -32 549 -32 750 0 284 45 512 117 764 243 504 250 901
647 1150 1150 126 252 198 480 243 764 32 201 32 549 0 750 -45 284 -117 512
-243 764 -249 503 -646 900 -1150 1150 -357 178 -685 258 -1084 265 -110 2
-222 2 -250 0z m778 -1326 c57 -167 772 -2152 787 -2185 22 -50 44 -62 178
-98 l102 -28 0 -78 0 -79 -475 0 -475 0 0 80 c0 44 1 80 3 80 9 0 310 60 312
62 5 5 -177 522 -187 536 -8 9 -113 12 -486 10 l-476 -3 -89 -268 c-49 -148
-87 -271 -84 -273 3 -3 291 -64 304 -64 1 0 3 -36 3 -80 l0 -80 -410 0 -410 0
0 80 0 79 38 10 c20 5 66 17 102 26 84 22 117 39 134 73 7 15 181 514 385
1109 204 595 376 1094 381 1108 l10 25 169 0 169 0 15 -42z m-1876 -2073 c77
-39 107 -89 111 -185 4 -86 -12 -132 -65 -182 -107 -102 -314 -66 -374 66 -24
54 -24 148 0 202 21 46 81 100 126 113 62 19 148 12 202 -14z"/>
<path d="M2881 3477 c-6 -15 -94 -284 -197 -599 -103 -315 -189 -579 -191
-585 -4 -10 82 -13 412 -13 330 0 416 3 413 13 -3 6 -99 280 -213 607 -114
327 -209 597 -211 599 -2 2 -8 -8 -13 -22z"/>
</g>
</svg>
